<?xml version="1.0" standalone="no"?>
<!DOCTYPE svg PUBLIC "-//W3C//DTD SVG 20010904//EN"
 "http://www.w3.org/TR/2001/REC-SVG-20010904/DTD/svg10.dtd">
<svg version="1.0" xmlns="http://www.w3.org/2000/svg"
 width="1024.000000pt" height="1024.000000pt" viewBox="0 0 1024.000000 1024.000000"
 preserveAspectRatio="xMidYMid meet">
<metadata>
Created by potrace 1.14, written by Peter Selinger 2001-2017
</metadata>
<g transform="translate(0.000000,1024.000000) scale(0.100000,-0.100000)"
fill="#000000" stroke="none">
<path d="M4918 10235 c-2 -2 -64 -6 -138 -9 -74 -4 -148 -9 -165 -11 -16 -2
-56 -7 -89 -10 -32 -4 -68 -8 -80 -10 -11 -3 -82 -14 -156 -25 -74 -11 -142
-23 -150 -25 -8 -2 -31 -7 -50 -10 -19 -3 -51 -10 -70 -15 -19 -5 -46 -11 -60
-14 -14 -3 -45 -10 -70 -17 -25 -6 -52 -12 -60 -14 -8 -2 -55 -16 -105 -30
-49 -14 -94 -27 -100 -28 -5 -1 -16 -6 -22 -10 -7 -5 -13 -6 -13 -3 0 2 -37
-9 -82 -26 -46 -16 -87 -30 -93 -32 -32 -7 -92 -30 -102 -39 -7 -5 -13 -6 -13
-2 0 4 -6 3 -12 -2 -7 -6 -30 -16 -51 -23 -22 -7 -51 -18 -65 -26 -15 -8 -31
-14 -37 -14 -22 0 -468 -218 -473 -231 -2 -5 -8 -9 -14 -9 -24 0 -422 -247
-439 -273 -3 -5 -8 -7 -10 -6 -9 8 -299 -216 -437 -336 -177 -155 -418 -398
-521 -524 -18 -22 -43 -51 -54 -64 -34 -38 -51 -59 -142 -179 -47 -62 -89
-117 -93 -123 -13 -16 -145 -213 -167 -249 -88 -144 -129 -214 -174 -301 -16
-30 -34 -62 -41 -70 -7 -8 -10 -15 -6 -15 3 0 -5 -18 -19 -40 -14 -22 -22 -40
-19 -40 4 0 0 -8 -9 -17 -8 -10 -16 -21 -16 -25 -1 -4 -17 -43 -37 -85 -20
-43 -45 -100 -55 -128 -11 -27 -26 -63 -33 -80 -7 -16 -26 -64 -40 -105 -15
-41 -34 -91 -41 -110 -32 -84 -32 -84 -34 -106 0 -9 -6 -12 -13 -8 -6 4 -8 3
-5 -3 4 -6 -5 -48 -19 -94 -31 -102 -25 -80 -73 -273 -22 -88 -43 -173 -45
-190 -3 -17 -8 -41 -10 -52 -2 -12 -7 -37 -10 -55 -3 -19 -7 -43 -10 -54 -12
-60 -40 -264 -51 -380 -24 -249 -25 -849 -1 -995 5 -28 15 -115 22 -175 2 -22
6 -51 9 -65 6 -28 12 -68 20 -120 2 -19 7 -46 10 -60 3 -14 7 -38 10 -55 10
-70 51 -244 90 -384 19 -68 32 -128 29 -133 -3 -4 -2 -8 3 -8 4 0 19 -35 33
-78 13 -42 37 -111 53 -152 15 -41 30 -82 32 -90 4 -17 38 -101 98 -240 40
-94 196 -410 206 -420 4 -3 14 -21 25 -40 40 -76 59 -107 97 -165 22 -33 42
-68 45 -77 4 -10 10 -18 15 -18 5 0 9 -7 9 -15 0 -8 4 -15 8 -15 5 0 16 -15
25 -32 18 -34 65 -103 117 -168 16 -21 30 -42 30 -48 0 -6 3 -12 8 -14 4 -2
23 -23 42 -48 19 -25 37 -47 40 -50 3 -3 17 -21 32 -42 15 -20 33 -42 40 -50
7 -7 38 -43 68 -78 138 -164 338 -365 525 -527 33 -28 71 -61 85 -73 14 -12
41 -34 60 -49 19 -14 49 -38 65 -53 17 -16 36 -28 43 -28 6 0 12 -4 12 -8 0
-14 401 -289 460 -315 8 -4 29 -16 45 -26 105 -65 527 -281 550 -281 3 0 27
-10 53 -21 46 -21 147 -60 247 -94 28 -10 57 -21 65 -25 13 -6 60 -21 245 -78
11 -3 25 -7 30 -8 27 -7 55 -15 110 -30 83 -22 284 -67 355 -79 118 -19 302
-46 345 -51 28 -3 66 -7 85 -9 102 -12 301 -19 510 -19 304 0 494 13 735 49
22 4 54 9 70 11 17 2 53 9 80 14 28 5 67 12 89 15 21 3 42 7 46 10 4 2 25 7
46 9 21 3 125 28 229 56 105 28 197 53 205 55 46 12 384 136 470 172 19 8 44
19 55 23 90 39 268 123 275 131 6 7 39 19 44 16 1 -1 9 3 17 9 8 7 39 25 69
42 30 16 73 40 95 52 22 13 60 35 85 49 25 13 47 28 50 31 3 4 28 20 55 36 28
15 59 36 69 46 11 10 26 18 33 18 7 0 13 5 13 10 0 6 6 10 13 10 6 0 23 9 37
20 14 12 72 54 130 96 58 41 113 84 123 95 9 12 17 17 17 13 0 -5 6 -2 13 6 7
8 38 35 70 59 32 24 61 49 65 56 4 7 12 14 19 16 35 12 513 482 513 505 0 2
13 16 28 31 15 16 48 53 72 83 25 30 47 57 50 60 8 7 112 143 130 170 8 12 21
28 28 36 6 7 12 17 12 23 0 6 5 11 10 11 6 0 10 6 10 14 0 8 4 16 9 18 11 4
151 214 151 227 0 6 4 11 8 11 5 0 16 15 25 32 9 18 30 56 47 83 17 28 33 57
37 65 4 8 9 17 12 20 3 3 16 25 29 50 13 25 41 80 63 122 21 43 39 81 38 84 0
4 3 10 8 13 8 6 57 107 59 120 0 3 10 29 23 56 42 91 49 109 99 245 80 215
140 405 157 490 2 8 4 15 5 15 2 0 5 12 13 50 3 11 10 40 17 65 7 25 14 54 16
65 1 11 12 63 23 115 11 52 22 115 26 140 3 25 13 86 20 135 36 228 48 404 49
720 0 251 -11 500 -28 610 -3 16 -8 53 -11 80 -3 28 -8 61 -12 75 -3 14 -7 36
-8 50 -9 75 -56 323 -71 372 -3 9 -6 25 -8 35 -2 10 -11 43 -19 73 -8 30 -25
91 -37 135 -24 92 -105 334 -127 383 -8 18 -23 57 -33 87 -10 30 -26 70 -34
89 -9 20 -23 53 -32 74 -9 20 -30 66 -47 102 -17 36 -32 67 -33 70 -4 19 -57
121 -65 125 -5 4 -7 10 -4 15 3 5 1 11 -4 15 -6 3 -20 27 -33 53 -12 26 -40
76 -62 112 -38 64 -68 115 -90 155 -11 20 -124 191 -139 210 -4 6 -41 57 -83
114 -41 57 -79 108 -85 115 -5 6 -24 29 -41 52 -75 93 -104 129 -128 154 -14
15 -47 54 -75 85 -56 65 -263 274 -346 350 -76 69 -180 158 -239 205 -18 14
-37 30 -44 35 -6 6 -31 26 -56 45 -25 19 -46 38 -48 42 -2 5 -10 8 -17 8 -7 0
-15 4 -17 8 -3 8 -83 67 -118 88 -10 5 -29 18 -42 27 -53 40 -218 145 -218
140 0 -4 -8 1 -17 9 -36 31 -409 236 -443 243 -3 1 -32 14 -65 30 -33 15 -62
29 -65 30 -11 4 -66 26 -85 34 -65 29 -102 43 -205 81 -163 59 -273 96 -363
119 -43 11 -81 22 -85 25 -5 3 -19 7 -33 10 -13 2 -73 16 -134 30 -154 37
-156 37 -195 43 -69 10 -75 11 -77 13 -5 4 -13 5 -125 20 -60 7 -108 16 -108
19 0 3 -17 6 -37 6 -21 1 -76 4 -123 9 -47 4 -112 10 -145 12 -63 5 -553 12
-557 9z"/>
</g>
</svg>
