<svg xmlns="http://www.w3.org/2000/svg" version="1.1" viewBox="-5.0 -10.0 110.0 135.0">
    <path
        d="m33.156 50.047c5.0117 0.83594 13.355 2.8789 17.328 5.5703 0.30078 0.19531 0.58594 0.39453 0.84766 0.59766 0.10547 0.082031 0.23047 0.12109 0.35547 0.12109 0.53906 0.011718 0.80469-0.72266 0.35547-1.0508-0.16406-0.125-0.33203-0.24609-0.50781-0.37109 1.457-5.5195 2.3789-15.965-1.0938-20.469-1.5312-2.207-3.7695-3.4609-6.6484-3.7266-8.9727-1.0586-13.941 10.363-15.301 17.43-0.34766-0.042969-0.56641-0.066407-0.63672-0.074219-0.32031-0.035157-0.60938 0.19922-0.64453 0.51953-0.035157 0.32031 0.19922 0.60938 0.51953 0.64453-0.042969-0.011719 2.4648 0.28516 5.4297 0.80859zm8.1875-3.4883c1.6406 1.2109 3.6367 1.1992 3.5352 2.7305-0.17578 1.3672-2.9336 2.2891-5.4023 0.28906-2.4766-1.9883-2.6367-5.2617-1.5664-5.9062 1.2266-0.62109 1.8867 1.5273 3.4336 2.8867zm-0.61328-7.3633c0.19141-1.3945 2.2148-1.1289 1.9844 0.27734-0.19141 1.3945-2.2148 1.1328-1.9844-0.27734zm6.7617 2.0234c1.8633 3.4414-1.5938 5.9883-3.5508 2.2109-1.8633-3.4414 1.5938-5.9883 3.5508-2.2109zm-3.8086-9.332c10.781 0.76172 7.9102 17.949 6.8086 22.355-1.2891-0.76563-2.7617-1.4414-4.3477-2.043 4.8438-3.7422 4.7461-13.668-2.8438-14.797-6.7695-0.95312-10.082 6.7031-8.0508 11.832-2.2695-0.44141-4.25-0.74609-5.5898-0.92969 0.64844-3.043 4.2227-17.328 14.027-16.414z" />
    <path
        d="m66.473 69.562c-0.011718 0.007812-0.22266 0.10938-0.58594 0.27344 0.16797-4.3984 2.1719-9.4141 2.4844-10.168 0.32031-0.33984 0.48438-0.57422 0.50781-0.60938 0.41797-0.64453-0.50781-1.2852-0.96484-0.66406-0.003906 0.007813-0.55078 0.78125-1.7227 1.6172-1.082 0.76953-2.9336 1.7578-5.625 2.0781-5.6055 0.67188-16.887-1.7383-17.754-2.5938-0.60547-0.62891-1.2539-2.5547-1.6445-3.9219 0.31641 0.13281 0.625 0.28906 0.91016 0.47266 0.097656 0.0625 0.20703 0.09375 0.3125 0.09375 0.57031 0.007813 0.80859-0.77344 0.31641-1.082-2.9297-1.8672-7.4727-1.4258-7.6641-1.4062-0.32031 0.03125-0.55469 0.32031-0.52344 0.64062 0.03125 0.32031 0.32031 0.55859 0.64062 0.52344 0.023438-0.003906 1.1914-0.11328 2.6719 0.007813-0.89062 1.8672-2.8164 6.8477-1.5273 12.973 0.28906 1.375 2.4727 2.7344 6.4883 4.0352 3.6836 1.1406 7.8438 2.1172 11.461 2.2383 3.4805 0.17578 10.191-2.125 12.738-3.4648 0.67969-0.35938 0.1875-1.375-0.51953-1.0508zm-26.641-14.418c0.27734 1.0781 1.1328 4.125 2.1367 5.168 0.98828 1.0234 6.6602 2.0312 7.7852 2.2227 4.7578 0.73047 12.035 1.9648 16.789-1.3398-0.42188 1.2109-0.92578 2.8477-1.3008 4.6172-5.6289 1.9922-18.93 0.98047-22.574-0.23047-1.4258-0.75781-4.582-3.2773-5.4922-4.0117 0.36328-3.2891 1.457-5.7227 1.8906-6.5859 0.25391 0.042969 0.51172 0.097656 0.76562 0.16016zm13.25 17.707c-3.6094-0.30859-14.434-2.6055-15.629-5.2891-0.33984-1.6172-0.4375-3.1523-0.38281-4.5703 1.3164 1.0508 3.7656 2.9453 5.0469 3.625 1.0547 0.55859 5.6484 1.1914 10.234 1.4062 3.8711 0.17187 8.9883 0.15625 12.645-0.90234-0.17578 1.0742-0.28516 2.168-0.28906 3.2305-2.625 1.0938-7.6758 2.8945-11.621 2.5z" />
    <path
        d="m96.809 65.629c-2.5742-2.625-4.7695-3.7305-7.0391-3.2266-2.582-3.0273-4.4531-3.3086-6.2422-2.6914-0.92578-1.4258-2.1055-2.207-3.3477-2.2305-1.0742-7.3984-6.0078-18.738-11.102-24.805 0.46094-1.6211 0.64062-2.9688 0.65234-3.0781 0.070312-0.42969-0.40625-0.79688-0.80469-0.61719 0 0-2.2422 0.92969-2.2422 0.92969-4.5273-4.8008-9.5898-7.9023-14.699-9.5508-0.48828-0.73828-1.0508-1.4258-1.6992-1.9727-2.375-1.8906-8.5625-0.89453-12.203 0.90234-10.688 1.7109-22.668 9.2188-29.207 24.766-3.4961 8.1875-4.9023 14.879-4.2422 20.238-0.47266 0.39062-0.95312 0.83594-1.4375 1.3438-5.4805 5.7852 4.1406 15.98 7.8398 18.113 2.75 1.6602 6.7109 0.75 8.5469-1.793 0.60156-0.15234 2.2383-0.63281 3.8086-1.7148 13.172 2.8164 41.289 2.1641 49.965-4.4648 0.9375 3.8594 5.1133 5.7383 7.0703 6.1758 1.8398 2.5469 5.7969 3.4531 8.5469 1.793 3.7031-2.1328 13.32-12.332 7.8398-18.113zm-12.355-4.9766c1.2656-0.23047 2.7266 0.55078 4.168 2.207-2.0078 0.94531-4.2539 5.1523-4.2109 7.4375-1.1445 0.83984-2.0391 0.72266-2.6602-0.28906-0.035156-0.066406-0.070312-0.12891-0.10938-0.19531-0.30859-0.58203-0.51562-1.375-0.57422-2.2891 0.003906-0.046876 0-0.097657-0.007812-0.14453-0.17969-2.3516 1.0898-6.375 3.3945-6.7305zm-1.9336-0.34766c-1.7383 1.3047-2.7539 4.668-2.6367 6.957-0.80859 0.79688-1.4922 1.1484-1.8984 0.96094-0.81641-0.375-1.2305-2.7812-0.96094-5.5977 0.32031-3.4258 3.3711-5.6602 5.4922-2.3203zm-16.57-23.777c-1.4883 1.6797-7.3203 0.46094-8.5742-1.5l11.02-4.5586c-0.30078 1.5469-1.0312 4.4766-2.4453 6.0586zm-3.043 16.949c2.0586-3.8203 1.8711-11.012-1.7539-12.211-1.0312-0.32812-1.9531-0.078125-2.7305 0.55078 0.28125-1.4688 0.64844-2.8477 1.1211-4.0039 2.3398 0.89844 6.1484 1.1562 7.4883-0.75391 2.8398 4.375 3.4883 13.094 3.5195 16.328-1.5547-0.23438-4.2422-0.44141-7.6484 0.085937zm-5.293-4.1094c0.47266 0.28516 1.0742 1.1445 1.8125 1.6055 1.1484 0.55859 2.2188-0.042968 2.5156 1.3086 0.085938 0.48047-0.054687 1.0117-0.35938 1.4297-0.71484 0.14453-1.4531 0.32031-2.2148 0.53516-0.79297-0.35156-1.4023-1.0469-1.8203-1.8125 0.003906-0.90625 0.023437-1.9531 0.074219-3.0703zm2.1875-6.3867c0.20312 1.2148-0.91797 1.5977-1.0977 0.35938-0.19531-1.207 0.91406-1.5938 1.0977-0.35938zm2.6797 1.2031c1.7852 2.3438 0.50391 5.5586-1.3945 2.918-1.7383-2.3281-0.47656-5.4688 1.3945-2.918zm-21.625-24.75c3.5586-1.1172 7.4492-1.1875 8.6719-0.15625 1.8203 1.5391 2.9609 4.4922 3.4414 5.9727l-16.828-3.0195c0.6875-1.0391 2.4062-2.0703 4.7148-2.793zm-20.973 60.199c-0.31641-0.070312-0.62891 0.12891-0.69922 0.44531-0.24609 1.1172-1.2969 2.2344-2.6836 2.8477-1.6328 0.72266-3.4141 0.65234-4.8906-0.19531-2.7383-1.5703-8.1719-7.3164-8.8359-11.988-0.24609-1.7266 0.17578-3.1719 1.2578-4.2969 2.1406-2.2227 4.0508-3.2148 5.6719-2.9531 1.4727 0.23828 2.7695 1.5117 3.8555 3.7852 0.60156 1.2578 0.88672 2.3672 0.85938 3.25v0.015625c-0.039063 1.4336-0.98828 2.2383-2.5391 2.1602-1.7773-0.089844-2.9414-3.8789-3.2109-5.1992-0.0625-0.31641-0.375-0.52344-0.69141-0.45703-0.31641 0.0625-0.52344 0.375-0.45703 0.69141 0.34766 1.7773 1.793 6.125 4.3008 6.1367 1.7969 0.082031 3.1328-0.71094 3.6133-2.2852 0.87891 0.46875 1.5859 0.5625 2.3711 0.29297-0.027344 1.7656 0.85547 3.375 0.91016 3.4688 0.16016 0.28516 0.51953 0.38281 0.79688 0.22656 0.28125-0.15625 0.38281-0.51562 0.22656-0.79688-0.015625-0.023438-1.3516-2.4766-0.44922-4.2227 0.03125-0.054688 0.0625-0.11328 0.09375-0.16797 0.26172-0.48828 0.45703-1.0664 0.58203-1.6992 2.832 2.168 4.1797-0.66406 4.2461-3.5273 2.5352-3.3789 5.3984-4.1641 7.2109 0.95703-2.7148 1.5-5.5117 4.8047-5.6367 4.9531-0.11719 0.14062-0.16406 0.32812-0.12109 0.50781 0.65234 3.4414-0.56641 7.2539-5.375 8.9258 0.14844-0.35156-0.003906-0.78516-0.40234-0.87109zm2.1328-11.41c-0.40234 0.18359-1.0898-0.16406-1.8984-0.96094 0.11719-2.2891-0.89844-5.6562-2.6367-6.957 2.125-3.3398 5.1719-1.1055 5.4961 2.3203 0.26953 2.8164-0.14453 5.2227-0.96094 5.5977zm-3.5-4.0547c0.34766 1.1289 0.47266 2.2383 0.42578 3.2188-0.007812 0.046875-0.011718 0.09375-0.007812 0.14453-0.058594 0.91406-0.26562 1.707-0.57422 2.2891-0.039063 0.0625-0.074219 0.12891-0.10938 0.19531-0.62109 1.0117-1.5195 1.1289-2.6602 0.28906 0.042968-2.2891-2.2031-6.4922-4.2109-7.4375 2.8633-3.3594 5.8242-2.918 7.1367 1.3086zm23.887 16.461c-7.0234 0-12.945-0.44141-17.844-1.3477 2.5547-2.2852 2.6133-6.2031 2.3008-7.6719 0.69531-0.78906 3.2617-3.6016 5.5156-4.6719 0.25781-0.12109 0.38672-0.41016 0.3125-0.68359-0.94141-3.3711-3.9258-7.5977-8.4883-2.9219 0.027343-4.8398-4.6016-8.3555-7.7305-3.6211-1.7852-0.61719-3.6602-0.33594-6.2422 2.6914-1.4727-0.34375-2.8984 0.03125-4.5117 1.0742-0.44141-5.0312 0.96094-11.309 4.2305-18.969 4.8438-11.957 14.613-20.816 25.719-23.551-0.48437 0.5-1.5742 1.9844-0.47266 2.293l18.504 3.3203c0.19531 0.035157 0.39453-0.03125 0.53125-0.17578 0.13672-0.14453 0.1875-0.35156 0.14063-0.54297-0.03125-0.125-0.50781-1.9727-1.4922-3.9336 4.3672 1.6406 8.7031 4.418 12.637 8.4766l-9.1484 3.7852c-0.26953 0.11328-0.41797 0.40625-0.34375 0.69141 0.28125 1.0586 1.2656 1.8906 2.4492 2.4883-2.4336 5.8359-2.1211 16.168-2.0508 17.883-0.39844 0.10156-0.71484 0.41797-0.55078 0.84766 0.089843 0.23047 0.3125 0.36719 0.54297 0.36719 8.2461-3.3164 15.344-1.7344 15.297-1.6406 0.74609 0.19141 1.0625-0.89062 0.32031-1.1289-0.03125-0.007812-0.14453-0.039062-0.32422-0.082031-0.089844-1.7305 0.054687-11.445-3.9844-17.578 0.36328-0.63281 0.66406-1.3242 0.91797-2.0156 4.7422 5.9258 9.418 16.617 10.441 23.641-1.9531 0.60547-3.2969 3.1875-3.2891 5.6836-4.5703-4.6797-7.5469-0.44141-8.4883 2.9219-0.074219 0.27344 0.058594 0.5625 0.3125 0.68359 2.2539 1.0742 4.8242 3.8867 5.5156 4.6719-0.082031 0.49219-0.20312 1.5352-0.058594 2.7773-7.5039 5.5078-19.621 6.0625-30.676 6.2422zm54.82-9.8906c-0.66797 4.6719-6.1016 10.418-8.8359 11.988-1.4766 0.84766-3.2578 0.91797-4.8906 0.19531-1.3828-0.61328-2.4375-1.7305-2.6836-2.8477-0.25781-0.85547-1.4375-0.41016-1.1016 0.42188-4.832-1.6875-6.0117-5.4922-5.375-8.9258 0.042968-0.17969-0.003907-0.36719-0.12109-0.50781-0.125-0.14844-2.918-3.4492-5.6367-4.9531 1.8125-5.1367 4.6836-4.3164 7.2109-0.95312 0.066407 2.8672 1.4141 5.6953 4.2461 3.5273 0.125 0.63281 0.32031 1.2109 0.58203 1.6992 0.03125 0.054688 0.0625 0.11328 0.09375 0.16797 0.90234 1.7461-0.43359 4.1992-0.44922 4.2227-0.15625 0.28125-0.058594 0.64062 0.22656 0.79687 0.27734 0.15625 0.64062 0.058594 0.79688-0.22656 0.050782-0.09375 0.9375-1.7031 0.91016-3.4688 0.78906 0.26953 1.4922 0.17578 2.3711-0.29297 0.47656 1.5742 1.8164 2.3633 3.6133 2.2852 3.0039-0.14844 4.1758-5.5234 4.3008-6.1367 0.0625-0.31641-0.14062-0.625-0.45703-0.69141-0.31641-0.0625-0.625 0.14063-0.69141 0.45703-0.26562 1.3203-1.4297 5.1094-3.2109 5.1992-1.5469 0.078126-2.5039-0.72266-2.5391-2.1602v-0.015625c-0.03125-0.88281 0.25781-1.9922 0.85938-3.25 1.0859-2.2734 2.3828-3.5469 3.8555-3.7852 1.625-0.26562 3.5352 0.73047 5.6719 2.9531 1.082 1.1211 1.5039 2.5664 1.2578 4.2969z" />
</svg>